{"glyphs":{"0":{"ha":696,"x_min":49,"x_max":658,"o":"m 61 360 q 49 490 61 368 q 92 735 56 631 q 229 932 131 847 q 379 976 290 985 q 526 912 471 967 q 619 764 582 857 q 624 746 622 756 q 628 728 626 736 q 631 710 629 721 q 633 693 632 700 q 625 379 658 565 q 569 176 601 249 q 449 28 531 85 q 268 14 364 -33 q 147 122 196 50 q 61 360 86 213 m 243 726 q 196 496 197 626 q 232 272 193 382 q 318 151 261 186 q 350 139 339 138 q 379 156 361 140 q 453 272 435 204 q 493 668 515 511 q 418 813 481 757 q 342 829 383 844 q 264 767 282 808 q 253 746 260 760 q 243 726 246 732 z "},"1":{"ha":479,"x_min":28,"x_max":463,"o":"m 303 335 q 292 153 301 324 q 353 156 349 156 q 407 151 388 156 q 447 126 433 146 q 458 82 461 107 q 438 42 457 58 q 393 24 419 25 q 381 23 389 22 q 368 24 372 24 q 275 17 314 19 q 185 8 238 14 q 158 6 175 8 q 133 3 140 4 q 94 0 101 0 q 51 15 68 1 q 31 50 35 29 q 41 91 28 74 q 81 115 54 108 q 143 129 85 117 q 189 797 169 415 q 164 782 165 783 q 118 772 142 769 q 78 792 94 775 q 63 830 63 808 q 82 871 64 851 q 157 943 108 897 q 260 963 199 982 q 326 886 322 942 q 329 794 331 840 q 319 563 325 653 q 310 440 317 519 q 303 335 304 361 z "},"2":{"ha":675,"x_min":36,"x_max":636,"o":"m 306 156 q 310 147 308 151 q 493 160 474 160 q 564 158 536 163 q 607 135 590 156 q 622 89 624 115 q 601 45 619 63 q 556 26 583 28 q 238 10 279 13 q 179 5 218 8 q 136 0 140 1 q 67 19 93 -3 q 38 75 38 44 q 65 131 38 106 q 179 224 86 149 q 361 407 297 319 q 482 643 458 539 q 488 731 494 692 q 441 811 481 782 q 350 835 401 840 q 235 780 279 826 q 181 663 192 733 q 180 657 181 660 q 179 651 179 654 q 178 646 179 649 q 178 640 178 643 q 167 615 175 626 q 148 598 160 604 q 124 592 136 592 q 85 601 101 590 q 64 633 69 613 q 60 674 58 654 q 138 871 71 790 q 214 931 168 907 q 313 965 260 956 q 424 963 367 975 q 531 915 482 950 q 622 746 610 857 q 574 497 636 626 q 328 174 485 313 q 306 156 328 174 z "},"3":{"ha":761,"x_min":36,"x_max":721,"o":"m 597 542 q 571 522 596 540 q 589 510 589 511 q 689 402 657 475 q 704 246 721 329 q 646 103 692 182 q 574 35 622 61 q 303 -31 440 -37 q 111 54 185 -25 q 38 233 38 133 q 56 300 38 274 q 96 331 71 321 q 144 333 121 340 q 180 307 169 326 q 185 263 190 288 q 208 141 167 194 q 319 88 249 88 q 489 129 406 89 q 533 172 522 144 q 568 269 565 254 q 565 344 575 301 q 521 407 556 383 q 446 426 486 431 q 397 418 428 425 q 353 410 365 411 q 296 406 318 404 q 258 424 274 408 q 242 460 243 439 q 247 485 242 472 q 263 506 251 497 q 289 519 274 515 q 309 524 297 522 q 333 529 321 526 q 354 535 344 532 q 528 663 454 560 q 540 796 572 724 q 485 843 522 835 q 433 849 449 850 q 243 765 318 843 q 218 718 222 744 q 194 679 214 693 q 150 669 175 665 q 97 732 97 676 q 129 818 97 774 q 347 958 204 924 q 525 957 440 981 q 664 848 618 932 q 679 671 710 764 q 597 542 657 599 z "},"4":{"ha":660,"x_min":19,"x_max":624,"o":"m 185 467 q 181 450 185 467 q 415 485 275 451 q 417 507 417 506 q 428 749 428 739 q 453 799 429 782 q 507 807 478 817 q 544 763 539 794 q 549 707 549 744 q 549 488 549 676 q 557 485 550 488 q 566 483 564 483 q 574 481 568 482 q 582 478 579 479 q 590 474 585 476 q 597 470 594 472 q 602 465 599 468 q 608 459 606 463 q 613 453 610 456 q 622 413 622 431 q 603 372 621 386 q 544 347 586 357 q 535 211 536 219 q 532 167 533 192 q 529 116 531 142 q 528 71 528 90 q 506 19 525 39 q 458 0 488 0 q 413 18 432 0 q 393 64 394 36 q 396 149 392 93 q 403 248 399 183 q 410 328 408 313 q 408 346 410 328 q 386 342 389 343 q 217 318 231 319 q 142 308 214 317 q 136 308 139 308 q 131 307 133 307 q 125 306 128 307 q 47 333 74 303 q 31 414 19 364 q 94 600 56 522 q 261 928 163 736 q 297 965 275 956 q 343 964 319 975 q 368 876 394 939 q 247 608 311 732 q 185 467 239 593 z "},"5":{"ha":725,"x_min":44,"x_max":715,"o":"m 201 799 q 201 642 194 729 q 224 649 222 649 q 364 685 281 672 q 564 637 478 703 q 672 475 650 571 q 597 150 715 283 q 264 14 460 -6 q 92 67 151 25 q 63 89 71 81 q 46 128 47 106 q 59 169 44 151 q 95 190 74 186 q 136 182 117 194 q 272 138 181 150 q 365 144 317 131 q 551 319 515 186 q 508 524 585 446 q 389 565 460 571 q 224 515 315 558 q 171 492 192 499 q 101 499 132 478 q 74 560 71 519 q 76 651 75 583 q 83 764 78 718 q 100 853 88 810 q 101 876 100 854 q 136 928 103 915 q 181 939 160 938 q 299 950 253 947 q 511 957 329 951 q 526 957 518 957 q 567 936 551 953 q 582 896 582 919 q 566 855 582 872 q 525 836 550 838 q 368 831 481 833 q 301 829 346 829 q 235 828 257 829 q 215 825 221 828 q 206 817 208 822 q 201 799 203 811 z "},"6":{"ha":640,"x_min":21,"x_max":626,"o":"m 219 610 q 200 546 218 606 q 226 560 226 560 q 256 573 236 564 q 292 588 276 582 q 321 599 307 594 q 447 591 388 615 q 546 511 507 567 q 596 269 626 400 q 579 199 585 215 q 469 53 547 100 q 294 13 390 7 q 142 97 201 18 q 61 285 83 175 q 99 683 21 481 q 249 911 151 825 q 344 967 299 957 q 403 963 375 974 q 431 938 421 954 q 440 904 442 922 q 425 870 438 885 q 393 853 413 856 q 336 818 364 850 q 219 610 261 735 m 438 218 q 449 252 443 233 q 459 291 454 271 q 465 318 464 311 q 436 429 463 389 q 331 463 397 489 q 225 349 251 432 q 254 176 196 263 q 322 144 276 142 q 438 218 410 151 z "},"7":{"ha":632,"x_min":24,"x_max":640,"o":"m 374 685 q 439 821 378 693 q 261 819 393 818 q 114 818 129 819 q 90 821 104 818 q 58 832 71 825 q 35 858 46 839 q 25 907 25 876 q 45 947 25 929 q 89 969 65 965 q 294 969 108 972 q 507 967 479 965 q 546 969 536 969 q 617 931 594 967 q 618 853 639 894 q 509 645 581 781 q 406 449 438 510 q 364 365 390 419 q 325 286 338 311 q 300 238 311 260 q 277 193 289 217 q 253 144 265 169 q 207 46 250 139 q 147 0 188 4 q 85 26 108 -3 q 75 90 63 54 q 119 194 90 136 q 174 304 131 218 q 246 447 217 390 q 310 567 268 488 q 374 685 353 646 z "},"8":{"ha":669,"x_min":31,"x_max":619,"o":"m 588 660 q 528 544 574 596 q 560 504 558 507 q 611 357 607 436 q 596 164 618 233 q 501 33 571 83 q 349 -12 432 -17 q 119 81 217 -8 q 44 289 32 160 q 94 453 54 378 q 169 543 121 503 q 193 563 171 544 q 176 586 176 585 q 133 822 103 696 q 300 989 163 944 q 526 939 421 1028 q 592 814 578 896 q 588 660 604 739 m 468 211 q 481 314 469 218 q 478 314 479 314 q 471 371 472 368 q 419 450 460 425 q 332 482 378 475 q 283 469 304 485 q 214 383 233 431 q 192 264 194 335 q 197 226 192 244 q 217 184 203 207 q 264 144 232 161 q 342 124 296 128 q 422 143 385 118 q 468 211 458 168 m 451 682 q 463 758 453 688 l 460 758 q 460 772 460 772 q 427 844 458 821 q 351 860 396 868 q 335 856 349 858 q 315 851 322 853 q 272 815 288 849 q 264 725 257 779 q 369 618 278 635 q 415 628 393 614 q 451 682 446 649 z "},"9":{"ha":597,"x_min":-11,"x_max":565,"o":"m 318 350 q 344 417 321 354 q 307 414 332 417 q 272 410 282 411 q 238 410 261 410 q 74 522 117 422 q 101 876 -11 724 q 353 994 201 1013 q 513 889 461 981 q 554 681 564 797 q 489 417 543 563 q 385 158 418 226 q 286 3 351 89 q 258 -22 275 -12 q 217 -32 239 -35 q 182 -12 196 -29 q 165 23 167 3 q 176 61 164 43 q 187 77 181 68 q 199 94 193 86 q 208 110 204 103 q 232 148 221 128 q 251 187 243 168 q 269 228 260 206 q 286 268 279 250 q 302 310 293 286 q 318 350 311 333 m 396 636 q 422 722 417 675 q 403 803 404 797 q 353 856 389 843 q 288 854 317 868 q 204 788 228 829 q 199 579 151 692 q 226 551 206 561 q 269 546 247 542 q 313 563 271 547 q 396 636 365 582 z "},"\u0000":{"ha":0,"x_min":0,"x_max":0,"o":""},"\n":{"ha":0,"x_min":0,"x_max":0,"o":""},"\r":{"ha":0,"x_min":0,"x_max":0,"o":""}," ":{"ha":381,"x_min":0,"x_max":0,"o":""},"!":{"ha":289,"x_min":57,"x_max":235,"o":"m 183 985 q 210 973 199 982 q 227 950 221 964 q 233 919 233 936 q 225 839 233 918 q 204 593 206 611 q 200 281 204 569 q 199 242 199 244 q 177 200 196 217 q 133 182 158 183 q 102 188 117 182 q 77 208 88 194 q 64 238 67 221 q 61 269 61 251 q 61 444 61 297 q 58 444 60 444 q 57 444 57 444 q 76 719 74 697 q 107 918 78 738 q 113 942 110 931 q 140 977 121 965 q 183 985 160 989 m 149 122 q 192 103 174 122 q 210 60 210 85 q 190 17 208 35 q 147 0 172 -1 q 103 19 121 1 q 88 64 86 38 q 107 105 89 88 q 149 122 125 122 z "},"\"":{"ha":446,"x_min":33,"x_max":408,"o":"m 71 750 q 115 808 81 796 q 176 789 150 821 q 197 719 196 764 q 174 517 176 533 q 147 459 169 479 q 94 446 124 439 q 50 479 67 451 q 39 542 33 507 q 71 750 54 664 m 388 789 q 407 719 407 764 q 385 517 388 533 q 358 459 381 479 q 306 446 335 439 q 261 479 278 451 q 249 542 244 507 q 282 750 265 664 q 326 808 292 796 q 388 789 361 821 z "},"#":{"ha":846,"x_min":35,"x_max":819,"o":"m 740 500 q 799 469 779 499 q 804 407 818 440 q 746 361 788 371 q 701 357 733 358 q 568 351 686 356 q 546 269 547 275 q 532 213 542 253 q 515 151 522 172 q 504 124 513 136 q 469 92 492 101 q 424 90 447 83 q 385 119 399 99 q 372 165 371 139 q 381 200 374 169 q 415 339 385 215 q 365 333 406 338 q 304 325 325 328 q 279 196 288 240 q 277 185 279 194 q 274 171 275 176 q 243 127 265 142 q 192 117 221 113 q 147 144 164 122 q 133 197 131 167 q 147 275 133 199 q 150 297 147 276 q 110 293 111 293 q 85 295 96 292 q 65 305 74 299 q 49 320 56 311 q 40 340 43 329 q 47 386 35 365 q 82 415 58 407 q 163 436 108 424 q 190 463 185 440 q 208 532 192 469 q 142 532 149 532 q 121 532 129 532 q 74 552 92 535 q 56 595 57 569 q 74 639 56 621 q 121 660 92 657 q 231 676 138 663 q 244 681 232 676 q 272 779 264 750 q 274 788 272 781 q 278 800 276 796 q 306 833 286 822 q 347 840 325 844 q 373 831 361 839 q 392 810 385 822 q 400 782 399 797 q 396 740 400 772 q 389 700 396 738 q 410 697 399 697 q 436 699 422 697 q 457 700 450 700 q 531 703 463 700 q 551 765 550 760 q 572 813 565 801 q 608 840 585 833 q 651 838 631 847 q 682 808 672 828 q 686 764 692 789 q 672 710 686 761 q 701 707 700 708 q 740 703 735 704 q 783 674 768 696 q 794 626 797 653 q 784 594 793 608 q 760 572 775 581 q 728 563 746 564 q 694 562 722 561 q 661 563 667 563 q 628 561 660 563 q 613 517 615 521 q 610 499 613 515 q 635 499 633 499 q 740 500 736 500 m 454 489 q 475 557 469 539 q 361 549 413 553 q 343 476 353 513 q 400 483 364 479 q 454 489 436 488 z "},"$":{"ha":639,"x_min":39,"x_max":610,"o":"m 513 451 q 593 231 608 374 q 557 147 586 186 q 494 88 528 108 q 429 57 461 67 q 429 37 429 49 q 428 14 429 25 q 426 -7 428 3 q 427 -35 426 -15 q 428 -64 428 -56 q 407 -117 426 -97 q 358 -137 388 -137 q 308 -116 328 -137 q 290 -61 289 -94 q 294 21 290 -51 q 296 49 294 24 q 275 53 275 53 q 165 79 229 54 q 69 165 100 107 q 56 292 39 222 q 81 344 63 319 q 152 366 108 381 q 200 306 196 351 q 197 269 200 292 q 219 211 197 235 q 272 180 240 188 q 335 175 303 172 q 389 190 367 178 q 426 222 404 199 q 450 260 449 246 q 428 333 454 310 q 353 385 415 346 q 263 439 292 424 q 149 519 194 475 q 69 641 93 574 q 68 774 46 708 q 134 867 86 825 q 240 921 182 908 q 243 1036 243 1007 q 285 1097 244 1082 q 332 1097 308 1107 q 365 1064 356 1088 q 375 1004 372 1044 q 376 946 376 1000 q 436 929 432 931 q 513 865 483 911 q 539 767 543 818 q 519 717 536 733 q 469 699 499 696 q 422 726 439 701 q 418 738 422 728 q 408 759 414 749 q 394 781 403 769 q 372 800 386 793 q 340 807 357 807 q 265 783 300 807 q 219 720 229 760 q 244 629 208 681 q 322 571 286 594 q 361 549 335 563 q 400 529 388 536 q 513 451 481 478 z "},"%":{"ha":858,"x_min":33,"x_max":821,"o":"m 744 817 q 728 790 740 808 q 572 569 671 710 q 391 311 474 428 q 236 90 308 194 q 165 50 207 49 q 119 78 136 51 q 113 135 101 104 q 129 163 118 146 q 625 869 340 464 q 643 890 636 883 q 682 908 660 906 q 722 897 704 910 q 748 861 742 883 q 744 817 754 839 m 346 579 q 235 524 297 531 q 122 552 174 518 q 49 650 71 586 q 40 753 33 703 q 74 849 46 804 q 147 918 103 893 q 232 939 190 943 q 247 938 239 938 q 260 938 254 938 q 274 937 267 938 q 289 934 282 936 q 301 929 296 932 q 408 794 385 890 q 414 749 408 792 q 346 579 410 643 m 176 682 q 207 655 188 660 q 246 664 226 650 q 282 722 274 683 q 272 789 290 761 q 207 804 246 831 q 165 721 169 776 q 176 682 175 683 m 819 264 q 819 247 819 263 q 742 75 818 138 q 637 33 693 35 q 535 65 581 31 q 474 160 490 99 q 524 371 442 278 q 703 425 601 457 q 818 281 799 396 q 819 264 819 274 m 656 171 q 688 221 678 188 q 685 279 697 254 q 662 303 676 299 q 631 293 647 307 q 594 215 599 268 q 601 186 601 188 q 624 163 610 167 q 656 171 639 160 z "},"&":{"ha":554,"x_min":29,"x_max":528,"o":"m 272 215 q 269 264 272 219 q 214 276 215 275 q 71 374 121 300 q 50 507 29 435 q 140 653 72 589 q 169 674 142 654 q 154 682 156 682 q 78 761 97 707 q 79 867 60 815 q 192 1001 104 947 q 221 1018 193 1003 q 226 1150 225 1132 q 229 1176 228 1167 q 252 1215 235 1201 q 293 1228 269 1229 q 331 1211 315 1226 q 350 1172 347 1196 q 351 1143 350 1158 q 351 1109 351 1128 q 351 1079 351 1090 q 354 1043 351 1078 q 383 1036 381 1036 q 436 1015 426 1021 q 460 983 454 1004 q 458 943 467 963 q 433 913 451 924 q 393 906 415 903 q 374 911 389 907 q 278 905 326 922 q 213 847 229 888 q 210 840 211 846 q 208 824 208 833 q 211 807 208 815 q 221 792 214 799 q 240 785 228 786 q 301 782 260 781 q 363 781 343 783 q 397 774 386 778 q 439 729 429 761 q 429 668 449 697 q 361 626 408 638 q 271 606 308 625 q 217 560 233 586 q 195 507 201 535 q 191 459 189 479 q 200 433 193 439 q 281 404 235 404 q 360 433 326 404 q 374 447 365 439 q 390 463 382 456 q 403 476 397 471 q 467 492 432 501 q 513 449 501 483 q 499 379 526 408 q 417 306 451 331 q 397 265 394 289 q 402 226 399 253 q 407 185 406 199 q 397 130 413 153 q 353 103 382 107 q 319 106 335 100 q 292 127 303 113 q 276 161 281 142 q 272 215 275 171 z "},"'":{"ha":219,"x_min":28,"x_max":192,"o":"m 171 1067 q 192 997 190 1042 q 168 794 171 811 q 141 737 164 757 q 89 724 118 717 q 44 757 61 729 q 33 819 28 785 q 65 1028 49 942 q 110 1086 75 1074 q 171 1067 144 1099 z "},"(":{"ha":383,"x_min":50,"x_max":357,"o":"m 339 92 q 355 39 357 67 q 332 -7 353 11 q 283 -26 311 -26 q 233 -4 254 -25 q 124 158 151 75 q 58 414 71 321 q 51 506 58 419 q 158 935 57 751 q 188 981 171 958 q 235 1013 204 1004 q 301 990 276 1024 q 306 919 331 953 q 217 682 247 839 q 200 444 188 535 q 221 343 207 399 q 256 219 231 306 q 311 124 271 165 q 339 92 331 103 z "},")":{"ha":354,"x_min":19,"x_max":299,"o":"m 299 572 q 299 475 299 569 q 206 82 294 275 q 163 21 190 50 q 115 -3 142 -1 q 67 14 88 -4 q 40 58 44 32 q 53 110 36 85 q 138 339 113 200 q 129 797 176 557 q 60 922 114 874 q 46 1003 21 958 q 81 1031 58 1024 q 125 1028 103 1038 q 172 996 153 1017 q 271 814 247 915 q 299 572 297 704 z "},"*":{"ha":554,"x_min":21,"x_max":524,"o":"m 519 735 q 517 702 524 718 q 496 679 510 686 q 460 671 483 674 q 400 669 458 671 q 385 668 399 669 q 390 653 390 653 q 407 624 394 647 q 426 586 419 600 q 442 547 438 564 q 438 513 446 529 q 413 489 429 497 q 376 487 394 482 q 347 508 358 492 q 344 514 346 511 q 342 520 343 517 q 339 526 340 524 q 292 614 306 588 q 283 625 292 614 q 233 553 238 560 q 228 544 231 549 q 222 536 225 540 q 217 528 219 532 q 211 519 214 524 q 176 495 197 500 q 138 502 156 490 q 115 535 119 514 q 124 576 111 556 q 168 643 126 581 q 176 657 168 644 q 101 656 129 663 q 95 655 99 656 q 89 653 92 654 q 83 651 86 651 q 36 678 50 647 q 47 731 21 710 q 86 750 67 746 q 158 758 93 751 q 174 760 158 758 q 118 842 126 831 q 114 848 117 844 q 110 853 111 851 q 114 911 88 885 q 141 926 125 924 q 172 918 157 928 q 207 882 186 908 q 238 845 218 869 q 261 815 257 821 q 276 800 263 814 q 357 907 344 892 q 378 933 371 926 q 440 938 408 963 q 457 909 454 926 q 449 874 460 892 q 431 847 440 861 q 410 815 421 832 q 392 788 399 797 q 385 775 392 788 q 400 775 400 775 q 474 775 471 775 q 519 735 511 772 z "},"+":{"ha":614,"x_min":25,"x_max":588,"o":"m 518 606 q 569 581 550 601 q 586 533 588 561 q 566 484 586 504 q 514 463 546 464 q 419 463 507 463 q 376 463 407 463 l 376 431 q 376 315 376 322 q 345 258 374 278 q 282 250 317 238 q 235 313 238 265 q 232 407 233 326 q 232 463 232 410 q 154 463 163 463 q 100 463 106 463 q 47 484 68 464 q 26 533 26 504 q 46 583 26 563 q 97 606 65 604 q 203 607 99 606 q 231 608 204 607 q 231 683 231 678 q 235 732 232 719 q 244 755 238 744 q 258 772 250 765 q 278 783 267 779 q 301 788 289 788 q 347 773 326 788 q 372 732 367 758 q 375 699 375 721 q 375 606 375 689 q 476 606 464 606 q 518 606 510 606 z "},",":{"ha":222,"x_min":25,"x_max":189,"o":"m 168 244 q 189 175 188 219 q 165 -28 168 -11 q 138 -85 161 -65 q 86 -99 115 -104 q 42 -65 58 -93 q 31 -1 25 -37 q 63 207 46 119 q 107 265 72 253 q 168 244 142 278 z "},"-":{"ha":500,"x_min":22,"x_max":478,"o":"m 400 586 q 455 563 433 583 q 476 513 476 542 q 453 465 475 485 q 400 444 432 446 q 118 444 351 442 q 92 446 100 444 q 42 470 61 450 q 24 517 24 490 q 43 564 24 544 q 92 586 63 583 q 169 589 111 589 q 376 586 210 588 q 400 586 394 586 z "},".":{"ha":276,"x_min":28,"x_max":247,"o":"m 142 271 q 217 238 186 269 q 247 163 247 207 q 215 84 247 117 q 137 51 182 51 q 60 85 92 51 q 29 164 28 118 q 63 240 31 210 q 142 271 96 271 z "},"/":{"ha":442,"x_min":25,"x_max":422,"o":"m 347 971 q 399 955 378 975 q 419 904 421 935 q 415 886 418 896 q 356 688 396 822 q 285 449 317 554 q 226 250 254 344 q 174 44 225 246 q 161 1 164 7 q 128 -35 150 -24 q 81 -39 106 -46 q 40 -13 56 -33 q 25 39 25 7 q 43 119 42 118 q 72 236 54 172 q 101 340 89 300 q 138 459 114 381 q 171 567 161 538 q 260 846 210 696 q 299 935 269 875 q 347 971 314 967 z "},":":{"ha":307,"x_min":38,"x_max":268,"o":"m 163 247 q 238 215 207 246 q 268 139 268 183 q 235 60 268 93 q 158 28 203 28 q 81 62 113 29 q 50 140 49 94 q 84 217 51 186 q 163 247 117 249 m 224 465 q 208 449 224 465 q 147 433 192 433 q 69 466 101 433 q 39 544 38 499 q 73 622 40 590 q 151 651 106 653 q 226 619 196 650 q 257 543 257 588 q 224 465 257 497 z "},";":{"ha":294,"x_min":39,"x_max":258,"o":"m 83 183 q 126 242 92 229 q 188 222 161 254 q 208 153 208 197 q 201 89 206 132 q 194 13 197 46 q 186 -50 190 -21 q 158 -108 181 -87 q 106 -122 135 -128 q 62 -87 78 -115 q 50 -25 46 -60 q 83 183 65 97 m 153 651 q 206 637 182 651 q 244 597 231 622 q 258 543 258 572 q 226 465 258 497 q 148 433 193 433 q 71 466 103 433 q 40 544 39 499 q 74 622 42 590 q 153 651 107 653 z "},"<":{"ha":432,"x_min":25,"x_max":399,"o":"m 379 251 q 397 218 394 238 q 386 183 399 199 q 356 164 374 168 q 319 169 338 160 q 306 181 314 174 q 57 365 135 308 q 28 415 31 386 q 49 469 25 444 q 129 549 56 476 q 297 717 246 665 q 314 731 308 726 q 347 739 329 740 q 378 725 365 738 q 394 694 392 713 q 385 660 396 675 q 368 640 381 653 q 305 578 339 611 q 231 505 271 544 q 168 443 192 465 q 150 425 167 442 q 215 376 213 378 q 290 321 240 358 q 364 264 339 283 q 379 251 375 256 z "},"=":{"ha":581,"x_min":32,"x_max":554,"o":"m 78 550 q 58 560 67 553 q 43 575 49 567 q 35 594 38 583 q 33 615 32 604 q 52 653 36 638 q 92 672 68 669 q 101 672 94 672 q 110 672 107 672 q 164 676 129 674 q 228 680 199 678 q 282 683 257 682 q 415 689 340 688 q 469 689 429 690 q 500 683 486 688 q 524 669 514 678 q 539 647 533 660 q 544 621 544 635 q 526 569 546 590 q 474 546 507 549 q 435 544 465 544 q 289 544 411 544 l 289 543 q 119 543 143 543 q 78 550 99 543 m 479 425 q 537 386 519 421 q 533 318 554 351 q 486 285 517 290 q 461 282 474 282 q 225 288 413 283 q 225 288 225 288 q 225 290 225 289 q 125 293 133 293 q 94 294 103 293 q 69 306 81 297 q 50 328 57 315 q 43 354 43 340 q 55 394 43 376 q 89 418 67 411 q 119 422 104 422 q 361 428 286 426 q 479 425 438 429 z "},">":{"ha":436,"x_min":25,"x_max":410,"o":"m 407 494 q 390 447 408 469 q 272 300 382 436 q 182 189 208 219 q 167 171 172 176 q 134 160 153 160 q 101 171 115 160 q 84 199 88 182 q 88 232 81 215 q 106 257 92 240 q 272 465 114 268 q 286 483 274 467 q 268 497 269 496 q 169 566 238 518 q 64 640 100 614 q 44 654 50 650 q 28 687 31 668 q 38 722 26 706 q 67 742 49 738 q 103 738 85 746 q 118 728 108 735 q 375 549 354 563 q 407 494 404 528 z "},"?":{"ha":549,"x_min":33,"x_max":519,"o":"m 447 896 q 518 717 518 817 q 476 578 518 642 q 382 444 468 564 q 313 344 314 349 q 285 290 303 331 q 289 232 271 257 q 297 192 300 214 q 278 156 293 171 q 201 149 243 122 q 150 244 156 175 q 168 342 146 286 q 274 513 196 411 q 363 635 315 568 q 382 678 374 651 q 347 815 408 756 q 256 835 310 854 q 219 813 232 826 q 161 667 158 747 q 189 611 163 629 q 211 578 207 599 q 204 539 215 557 q 175 514 194 521 q 135 514 156 507 q 71 567 97 526 q 38 675 39 617 q 142 914 35 818 q 232 963 181 949 q 343 961 283 976 q 447 896 403 946 m 228 108 q 267 92 250 108 q 285 54 283 76 q 269 14 285 31 q 229 -3 253 -3 q 189 13 206 -4 q 172 52 172 29 q 189 92 172 75 q 228 108 206 108 z "},"@":{"ha":1057,"x_min":26,"x_max":1051,"o":"m 917 988 q 1006 631 1050 826 q 863 372 969 469 q 775 331 818 333 q 646 400 693 325 q 631 429 644 401 q 583 396 585 397 q 503 362 547 368 q 422 369 460 356 q 355 419 383 383 q 319 507 326 456 q 337 671 307 594 q 443 789 367 747 q 526 808 485 808 q 606 792 568 808 q 622 810 613 807 q 624 810 622 810 q 653 813 642 813 q 686 808 665 814 q 719 787 707 803 q 739 735 732 771 q 742 646 746 699 q 746 533 743 579 q 763 471 747 497 q 772 476 772 476 q 867 637 842 538 q 860 821 892 736 q 768 938 835 888 q 490 982 653 1024 q 363 931 426 965 q 328 906 343 921 q 185 536 164 751 q 315 303 199 397 q 436 261 358 268 q 488 260 454 260 q 529 260 521 260 q 571 256 560 258 q 606 233 593 250 q 619 193 618 215 q 614 165 619 178 q 598 142 608 151 q 574 128 588 132 q 556 124 563 124 q 279 164 385 113 q 231 194 247 181 q 47 619 28 365 q 104 836 58 751 q 235 1006 153 925 q 394 1096 286 1057 q 669 1128 544 1149 q 746 1104 707 1122 q 917 988 864 1051 m 590 524 q 595 567 594 531 q 594 622 596 603 q 593 629 593 625 q 590 646 592 642 q 587 656 589 650 q 582 666 585 663 q 574 672 579 669 q 510 662 540 686 q 467 598 481 638 q 456 525 453 558 q 463 499 457 511 q 481 478 469 486 q 507 469 493 469 q 590 524 564 469 z "},"A":{"ha":636,"x_min":1,"x_max":622,"o":"m 479 92 q 454 194 476 101 q 315 190 328 190 q 179 190 306 190 q 125 63 142 107 q 117 36 117 39 q 87 6 106 15 q 47 3 68 -4 q 14 28 26 8 q 4 72 1 47 q 17 122 8 99 q 94 331 75 283 q 263 800 194 575 q 299 892 278 853 q 342 951 313 921 q 388 969 361 972 q 431 940 414 965 q 440 915 438 928 q 459 840 446 893 q 481 749 472 788 q 496 674 490 710 q 613 111 553 342 q 618 88 617 96 q 609 40 622 63 q 574 8 596 17 q 528 10 550 0 q 494 43 506 19 q 479 92 489 56 m 419 339 q 363 658 397 468 q 322 550 343 607 q 277 426 301 493 q 239 319 253 358 q 419 339 306 326 z "},"B":{"ha":593,"x_min":57,"x_max":569,"o":"m 425 513 q 424 508 425 513 q 443 496 442 497 q 549 360 521 444 q 553 225 569 293 q 460 67 528 131 q 304 0 392 3 q 160 7 283 0 q 131 13 147 7 q 89 65 97 24 q 85 85 86 82 q 68 150 69 104 q 61 615 67 215 q 58 826 58 772 q 60 860 58 847 q 77 897 64 883 q 110 910 90 910 q 143 922 125 911 q 346 963 244 986 q 464 885 414 946 q 506 668 533 799 q 439 531 489 592 q 425 513 433 525 m 176 372 q 176 252 176 332 q 176 131 176 172 q 222 128 189 131 q 278 125 256 125 q 321 129 300 125 q 443 247 408 149 q 446 315 456 283 q 408 371 436 347 q 351 396 381 394 q 176 372 292 400 m 172 522 q 174 501 172 522 q 192 506 190 506 q 311 571 258 528 q 360 618 336 590 q 404 725 399 664 q 386 797 407 771 q 325 839 358 831 q 199 824 261 853 q 168 768 167 810 q 172 522 168 751 z "},"C":{"ha":635,"x_min":43,"x_max":603,"o":"m 215 583 q 210 502 215 560 q 204 421 206 444 q 204 282 204 294 q 239 174 206 225 q 290 131 256 150 q 340 132 318 115 q 393 176 378 160 q 440 288 429 219 q 440 292 440 289 q 442 297 440 296 q 469 347 446 328 q 524 365 492 367 q 564 354 546 364 q 592 327 582 344 q 600 289 601 310 q 408 3 578 88 q 213 7 313 -44 q 50 236 69 79 q 46 454 44 286 q 61 640 47 518 q 142 883 75 765 q 239 968 174 940 q 376 983 304 996 q 553 874 490 965 q 563 851 561 863 q 583 713 567 824 q 583 706 583 710 q 566 654 585 674 q 517 633 547 635 q 460 652 486 632 q 432 700 435 672 q 430 723 431 711 q 429 748 429 735 q 428 769 429 761 q 425 790 428 779 q 406 831 421 818 q 360 847 390 844 q 278 808 300 854 q 215 583 218 686 z "},"D":{"ha":643,"x_min":56,"x_max":631,"o":"m 65 346 q 66 395 65 365 q 67 447 67 425 q 67 496 67 468 q 64 546 67 524 q 64 867 56 661 q 67 894 65 886 q 114 939 75 936 q 140 944 126 939 q 311 968 240 975 q 440 915 371 963 q 606 640 571 829 q 582 363 631 504 q 404 96 526 199 q 299 39 356 54 q 167 21 214 15 q 125 38 140 22 q 108 47 118 43 q 69 108 71 63 q 65 214 67 165 q 65 346 65 224 m 192 189 q 192 138 192 186 q 273 156 242 142 q 342 204 304 169 q 457 369 418 276 q 474 678 522 529 q 336 832 439 782 q 207 846 288 857 q 194 840 200 844 q 179 833 188 835 q 192 189 197 461 z "},"E":{"ha":600,"x_min":50,"x_max":586,"o":"m 483 835 q 199 829 300 843 q 194 668 197 774 q 190 549 190 563 q 281 558 276 557 q 431 567 363 564 q 474 563 449 567 q 515 537 500 557 q 528 492 531 517 q 507 450 525 467 q 463 433 489 433 q 408 434 444 433 q 351 435 371 435 q 193 431 338 435 q 188 424 188 424 q 208 171 186 258 q 218 146 214 150 q 243 142 222 142 q 317 139 269 140 q 374 138 364 138 q 443 133 429 136 q 485 122 465 131 q 515 90 506 111 q 518 47 524 69 q 494 13 513 26 q 454 0 476 -1 q 330 -1 418 1 q 206 0 242 -4 q 86 93 117 7 q 58 293 67 151 q 65 692 50 460 q 82 846 67 731 q 93 894 83 857 q 144 944 103 932 q 157 947 154 947 q 511 965 347 979 q 535 961 524 964 q 572 935 558 954 q 582 892 585 915 q 563 851 579 867 q 522 833 546 835 q 483 835 518 833 z "},"F":{"ha":629,"x_min":60,"x_max":632,"o":"m 213 831 q 201 829 213 831 q 201 690 201 779 q 200 568 200 600 q 276 578 272 578 q 431 581 335 579 q 464 574 444 581 q 499 547 486 567 q 508 504 511 526 q 489 464 506 481 q 449 446 472 447 q 415 447 438 446 q 218 447 315 458 q 197 442 218 447 q 197 431 197 438 q 197 419 197 425 q 197 408 197 413 q 194 79 196 157 q 193 57 194 67 q 170 17 189 32 q 126 1 151 1 q 84 17 101 1 q 64 58 67 33 q 61 125 61 81 q 63 275 61 178 q 66 451 65 372 q 67 600 67 531 q 81 872 67 751 q 86 908 83 899 q 139 949 99 946 q 200 955 161 951 q 272 962 239 958 q 335 967 306 965 q 443 968 364 969 q 547 965 474 968 q 575 963 563 965 q 615 939 600 958 q 629 894 631 919 q 623 871 628 882 q 610 851 618 860 q 590 838 601 843 q 567 833 579 833 q 513 833 549 832 q 463 835 478 835 q 213 831 403 833 z "},"G":{"ha":678,"x_min":22,"x_max":640,"o":"m 467 11 q 467 22 467 14 q 399 4 401 6 q 251 9 325 -14 q 122 92 176 32 q 54 233 67 151 q 60 618 22 467 q 101 771 82 711 q 144 860 117 814 q 350 969 215 975 q 554 883 475 964 q 590 782 597 839 q 562 728 586 746 q 501 719 538 711 q 454 779 453 731 q 435 818 456 803 q 328 844 393 849 q 293 821 306 843 q 250 744 258 765 q 207 242 160 504 q 272 140 218 175 q 360 124 314 114 q 363 124 360 124 q 367 125 365 125 q 467 221 444 135 q 486 372 489 307 q 485 385 486 374 q 407 389 414 388 q 358 397 375 392 q 326 443 326 410 q 358 488 328 476 q 418 500 386 499 q 519 500 472 503 q 581 486 551 497 q 633 414 625 467 q 638 328 639 368 q 632 245 635 289 q 627 169 629 201 q 622 92 625 136 q 617 10 619 49 q 585 -43 615 -26 q 503 -44 543 -65 q 467 11 467 -26 z "},"H":{"ha":740,"x_min":56,"x_max":685,"o":"m 532 429 q 531 443 532 429 q 429 433 497 440 q 307 422 361 425 q 203 421 253 418 q 200 385 200 386 q 201 85 200 192 q 183 26 201 49 q 133 4 165 4 q 88 19 107 4 q 65 61 69 35 q 58 131 60 94 q 69 622 56 433 q 89 892 76 733 q 97 932 90 914 q 124 961 106 951 q 161 968 142 971 q 197 950 183 965 q 214 913 211 935 q 214 883 214 907 q 211 724 213 840 q 208 565 210 607 q 210 547 208 565 q 376 566 267 550 q 540 585 486 582 q 547 746 543 621 q 550 790 547 760 q 553 833 553 819 q 550 878 553 847 q 554 913 547 889 q 603 957 565 951 q 665 928 647 964 q 682 872 681 899 q 681 649 685 744 q 673 455 679 581 q 665 290 667 329 q 662 179 664 251 q 658 85 660 107 q 654 56 658 71 q 628 15 649 29 q 581 1 607 0 q 537 23 554 4 q 518 68 519 42 q 521 210 518 117 q 524 283 522 249 q 528 354 526 318 q 532 429 531 390 z "},"I":{"ha":356,"x_min":26,"x_max":333,"o":"m 247 828 q 238 140 246 692 q 264 131 264 131 q 297 100 286 121 q 306 57 308 79 q 283 18 300 33 q 243 1 267 3 q 182 0 233 0 q 115 0 131 0 q 39 29 57 -1 q 30 70 26 49 q 50 108 33 92 q 94 139 53 111 q 99 485 96 256 q 104 833 103 715 q 79 849 79 849 q 56 918 42 875 q 77 949 61 938 q 111 961 93 961 q 147 961 128 960 q 188 965 165 963 q 222 969 210 968 q 281 961 251 971 q 319 934 306 954 q 329 890 332 914 q 310 849 328 865 q 265 829 293 833 q 247 828 265 829 z "},"J":{"ha":679,"x_min":-3,"x_max":671,"o":"m 610 828 q 554 824 607 828 q 550 771 550 772 q 555 581 551 724 q 560 361 558 439 q 538 158 561 276 q 476 38 522 85 q 373 -24 431 -10 q 254 -26 315 -37 q 71 114 128 -1 q 24 239 40 176 q 47 424 -1 343 q 104 465 68 458 q 161 455 138 474 q 185 403 185 436 q 174 356 185 376 q 165 265 151 314 q 197 179 181 218 q 256 122 217 138 q 335 117 294 107 q 392 174 383 129 q 413 308 410 264 q 415 388 415 313 q 414 469 414 464 q 416 645 414 531 q 418 782 418 760 q 418 831 418 783 q 381 831 382 831 q 235 838 256 836 q 187 859 204 840 q 171 905 169 878 q 192 949 172 932 q 244 965 213 965 q 342 969 267 967 q 460 972 418 972 q 603 968 522 974 q 649 947 631 967 q 669 901 667 928 q 654 853 671 874 q 610 828 638 833 z "},"K":{"ha":622,"x_min":57,"x_max":610,"o":"m 208 554 q 212 552 210 553 q 215 551 214 551 q 238 585 236 583 q 454 914 432 881 q 476 942 467 932 q 517 960 493 958 q 560 949 540 961 q 588 912 581 935 q 586 865 596 889 q 565 831 581 854 q 319 457 556 817 q 299 424 318 456 q 319 407 318 408 q 401 319 358 367 q 482 228 443 271 q 563 142 521 185 q 592 114 585 122 q 609 69 610 93 q 592 25 608 44 q 550 1 575 4 q 501 13 525 -3 q 469 38 493 18 q 390 115 425 76 q 308 210 356 153 q 232 300 260 267 q 206 321 231 300 q 203 294 203 296 q 201 206 203 278 q 199 94 199 133 q 192 54 197 69 q 178 30 188 40 q 155 14 168 19 q 126 8 142 8 q 87 22 104 10 q 63 57 69 35 q 58 97 58 74 q 72 740 60 133 q 74 807 74 758 q 75 882 75 856 q 81 919 76 904 q 104 956 86 942 q 146 969 122 969 q 187 955 168 969 q 213 918 206 940 q 215 876 215 901 q 208 576 215 833 q 208 554 208 576 z "},"L":{"ha":578,"x_min":57,"x_max":585,"o":"m 206 200 q 206 138 206 197 q 335 135 246 133 q 492 143 425 138 q 517 143 503 144 q 565 119 547 139 q 583 69 583 99 q 564 22 583 42 q 514 0 544 3 q 347 -3 483 -4 q 151 8 211 -1 q 96 30 111 15 q 65 90 81 44 q 61 124 61 104 q 63 231 61 132 q 64 324 63 258 q 65 417 65 389 q 64 510 65 444 q 75 818 57 667 q 83 896 82 889 q 100 942 89 921 q 131 969 110 961 q 172 969 151 976 q 206 944 193 963 q 217 903 218 925 q 206 680 207 793 q 208 456 206 567 q 206 200 210 447 z "},"M":{"ha":901,"x_min":61,"x_max":843,"o":"m 469 446 q 473 446 471 446 q 476 446 475 446 q 522 561 519 554 q 664 882 597 756 q 697 933 669 894 q 714 950 703 942 q 788 968 753 982 q 836 903 831 951 q 842 821 842 858 q 836 568 840 733 q 829 326 832 403 q 829 222 829 300 q 829 118 829 144 q 828 60 829 71 q 807 16 825 32 q 764 0 789 0 q 720 18 738 0 q 703 64 703 36 q 706 408 697 238 q 715 678 707 428 q 713 678 714 678 q 710 681 711 679 q 700 661 700 661 q 647 532 694 647 q 575 357 600 417 q 535 272 560 321 q 511 240 526 256 q 458 222 488 218 q 411 254 428 225 q 381 319 399 274 q 197 706 363 367 q 183 719 193 714 q 183 700 183 701 q 187 600 183 672 q 190 513 190 528 q 192 463 192 490 q 194 415 193 436 q 196 365 194 393 q 199 317 197 338 q 206 67 204 140 q 198 33 206 47 q 176 10 190 18 q 146 0 163 1 q 103 15 121 -1 q 81 58 85 31 q 78 94 79 63 q 72 248 76 140 q 65 413 68 356 q 65 424 65 415 q 64 436 64 432 q 63 674 65 501 q 64 911 61 846 q 80 947 64 931 q 117 969 96 963 q 165 963 139 975 q 210 919 192 950 q 308 744 233 883 q 392 594 383 606 q 464 461 440 526 q 469 446 464 460 z "},"N":{"ha":749,"x_min":53,"x_max":689,"o":"m 544 310 q 554 296 544 308 q 557 333 557 332 q 567 689 567 685 q 579 911 569 744 q 594 952 581 936 q 628 969 607 968 q 649 967 639 969 q 665 957 658 964 q 678 940 672 950 q 685 917 683 929 q 689 878 689 896 q 682 467 685 561 q 676 275 681 403 q 671 83 672 147 q 625 7 669 26 q 542 38 571 -17 q 524 73 535 53 q 504 112 514 93 q 488 146 494 131 q 378 353 454 208 q 261 575 303 497 q 197 704 258 581 q 193 682 193 682 q 192 634 193 664 q 192 579 192 604 q 190 532 192 554 q 183 341 188 465 q 176 186 178 217 q 175 113 176 178 q 175 99 175 106 q 175 86 175 93 q 175 74 175 79 q 155 26 172 43 q 113 8 138 8 q 72 28 88 10 q 56 75 56 47 q 54 157 54 119 q 58 213 56 176 q 60 267 60 249 q 62 333 61 297 q 64 401 63 369 q 66 467 65 433 q 68 536 67 501 q 71 603 69 571 q 82 856 71 622 q 83 860 82 857 q 83 864 83 863 q 83 868 83 865 q 83 872 83 871 q 115 951 79 910 q 150 969 131 968 q 186 954 169 969 q 215 917 201 940 q 381 615 338 701 q 544 310 394 589 z "},"O":{"ha":776,"x_min":32,"x_max":757,"o":"m 129 89 q 50 301 64 175 q 61 678 33 526 q 124 864 78 775 q 354 1004 190 993 q 468 1001 389 1007 q 607 940 549 994 q 728 708 708 847 q 693 271 756 496 q 619 107 667 176 q 364 -29 524 -36 q 129 89 215 -22 m 211 639 q 203 339 192 526 q 247 188 210 249 q 372 114 283 131 q 400 117 382 113 q 492 188 464 132 q 546 318 531 267 q 574 686 597 499 q 507 828 563 769 q 439 858 478 857 q 357 861 376 861 q 322 851 343 861 q 236 746 264 828 q 211 639 222 708 z "},"P":{"ha":626,"x_min":63,"x_max":619,"o":"m 192 946 q 197 922 192 944 q 315 966 228 961 q 447 940 403 971 q 577 791 536 883 q 601 594 618 699 q 581 506 592 533 q 538 428 571 479 q 268 308 461 311 q 211 314 265 308 q 208 292 208 292 q 206 188 208 269 q 203 83 203 107 q 201 60 203 68 q 179 17 199 33 q 134 0 160 0 q 89 17 108 0 q 65 61 69 35 q 64 119 64 81 q 71 910 65 340 q 71 931 71 926 q 89 971 74 954 q 126 990 104 988 q 153 986 140 992 q 176 970 167 981 q 192 946 186 960 m 208 735 q 208 657 208 703 q 209 574 208 611 q 210 503 210 536 q 210 463 210 469 q 326 458 258 439 q 426 528 394 478 q 471 694 485 611 q 378 821 457 778 q 335 833 365 829 q 268 824 306 836 q 214 781 231 811 q 208 735 208 776 z "},"Q":{"ha":838,"x_min":-8,"x_max":811,"o":"m 717 244 q 703 214 717 243 q 778 118 768 131 q 797 89 790 101 q 805 36 810 63 q 779 -7 800 10 q 732 -24 758 -25 q 685 -1 706 -22 q 662 26 676 7 q 646 48 647 46 q 614 86 644 50 q 589 63 592 65 q 410 -29 503 -14 q 158 61 265 -51 q 46 293 71 153 q 165 829 -7 594 q 365 976 247 942 q 654 893 529 1024 q 771 639 746 799 q 717 244 801 439 m 524 388 q 593 328 529 383 q 601 347 601 347 q 629 611 649 474 q 568 768 617 704 q 481 831 531 818 q 375 817 431 843 q 285 743 324 793 q 178 388 168 593 q 231 208 183 285 q 333 125 272 140 q 460 151 394 110 q 513 201 500 178 q 504 213 504 213 q 453 263 493 224 q 393 323 414 301 q 369 370 372 344 q 381 418 365 396 q 422 444 397 442 q 474 429 447 447 q 524 388 483 422 z "},"R":{"ha":638,"x_min":63,"x_max":619,"o":"m 538 428 q 406 329 492 358 q 536 129 501 185 q 554 88 549 111 q 548 40 560 63 q 513 6 536 17 q 464 3 489 -4 q 425 33 439 11 q 300 242 390 89 q 263 308 288 264 q 233 311 253 308 q 211 314 214 314 q 208 292 208 293 q 206 188 208 269 q 203 83 203 107 q 201 60 203 68 q 179 17 199 33 q 134 0 160 0 q 89 17 108 0 q 65 61 69 35 q 64 119 64 81 q 71 910 65 340 q 71 931 71 926 q 89 971 74 954 q 126 990 104 988 q 166 980 149 992 q 192 946 183 968 q 197 922 192 944 q 315 966 228 961 q 449 940 403 971 q 577 791 536 883 q 601 594 618 699 q 588 529 594 551 q 572 485 582 507 q 538 428 561 464 m 426 528 q 471 694 485 611 q 378 821 457 778 q 335 833 365 829 q 268 824 306 836 q 214 781 231 811 q 208 735 208 776 q 208 657 208 703 q 209 574 208 611 q 210 503 210 536 q 210 463 210 469 q 326 458 258 439 q 426 528 394 478 z "},"S":{"ha":626,"x_min":35,"x_max":622,"o":"m 582 796 q 584 764 582 783 q 577 706 586 744 q 549 629 568 667 q 515 590 539 603 q 463 582 492 576 q 422 609 436 589 q 413 657 408 629 q 431 704 426 679 q 434 750 436 729 q 426 786 432 771 q 414 808 421 801 q 361 843 396 836 q 294 835 326 850 q 212 740 235 806 q 221 621 189 675 q 361 475 279 522 q 469 404 411 444 q 575 261 551 346 q 461 -3 622 96 q 252 -41 364 -62 q 79 71 140 -19 q 44 213 38 131 q 90 281 49 256 q 162 285 125 301 q 203 232 199 269 q 203 201 204 221 q 265 107 199 135 q 386 125 328 82 q 425 178 418 147 q 415 242 432 210 q 357 300 397 275 q 325 320 346 307 q 287 344 304 333 q 254 367 269 356 q 53 615 107 464 q 38 690 39 653 q 47 759 36 728 q 71 816 57 790 q 106 865 85 842 q 140 902 126 889 q 168 928 153 915 q 328 989 240 986 q 486 938 417 992 q 582 796 567 875 z "},"T":{"ha":679,"x_min":-6,"x_max":686,"o":"m 426 822 q 401 819 426 822 q 397 692 397 696 q 390 442 394 613 q 382 183 385 272 q 376 63 379 89 q 347 11 374 29 q 289 4 321 -7 q 244 56 251 17 q 244 93 243 67 q 255 481 247 228 q 264 785 263 733 q 264 811 264 785 q 240 813 240 813 q 189 810 217 811 q 133 807 161 808 q 82 806 104 806 q 57 806 65 804 q 33 813 44 807 q 14 826 22 818 q 1 846 6 835 q -4 869 -4 857 q 10 913 -6 894 q 50 938 26 932 q 85 940 63 940 q 236 949 157 944 q 323 953 249 949 q 407 957 397 957 q 504 964 450 960 q 600 971 558 968 q 639 967 622 972 q 672 942 660 960 q 685 903 685 925 q 672 865 685 882 q 639 840 660 847 q 606 835 625 836 q 517 829 567 833 q 426 822 468 825 z "},"U":{"ha":763,"x_min":33,"x_max":738,"o":"m 208 801 q 199 658 207 789 q 194 496 194 588 q 208 335 194 404 q 242 225 219 283 q 346 150 268 158 q 458 204 421 143 q 486 260 479 238 q 558 538 544 439 q 575 876 576 667 q 578 911 575 900 q 599 951 582 935 q 642 969 617 967 q 688 959 667 972 q 717 921 708 946 q 722 885 722 906 q 631 221 736 525 q 604 161 624 201 q 509 49 569 88 q 365 1 449 10 q 340 1 350 -1 q 115 149 181 25 q 53 379 67 238 q 68 799 33 574 q 74 844 71 815 q 78 882 76 874 q 85 919 82 910 q 110 956 92 943 q 154 965 129 968 q 192 947 176 963 q 210 907 208 931 q 208 801 211 875 z "},"V":{"ha":783,"x_min":6,"x_max":775,"o":"m 372 231 q 413 150 374 226 q 429 181 428 179 q 504 406 468 260 q 628 900 521 475 q 636 925 633 918 q 669 963 646 951 q 719 967 693 974 q 760 936 746 960 q 768 886 774 913 q 753 826 764 865 q 742 781 743 788 q 618 288 622 306 q 544 101 593 189 q 493 26 521 56 q 422 -10 463 -8 q 346 17 382 -12 q 310 56 326 33 q 239 188 261 125 q 129 504 167 396 q 106 569 122 524 q 79 640 89 615 q 13 847 44 743 q 10 890 7 868 q 53 938 14 926 q 115 915 92 947 q 131 888 124 906 q 301 433 263 540 q 338 331 315 399 q 372 231 361 263 z "},"W":{"ha":889,"x_min":35,"x_max":867,"o":"m 622 385 q 631 354 624 383 q 667 525 665 515 q 718 838 669 540 q 731 914 728 899 q 759 957 738 942 q 808 968 781 972 q 851 943 835 964 q 863 893 867 922 q 855 835 861 874 q 847 782 849 797 q 774 376 832 669 q 763 308 768 346 q 751 231 757 271 q 740 161 746 190 q 714 54 735 126 q 668 7 706 24 q 617 3 642 -6 q 579 38 592 13 q 565 78 576 44 q 468 475 507 258 q 444 594 465 490 q 435 607 443 601 q 406 506 407 511 q 286 74 365 317 q 242 15 272 31 q 181 8 210 -3 q 140 54 151 19 q 118 161 126 103 q 106 261 113 207 q 94 358 100 315 q 83 458 89 401 q 71 556 76 515 q 59 651 68 581 q 46 758 50 721 q 36 892 39 826 q 57 941 35 922 q 110 951 79 960 q 151 907 144 943 q 164 835 154 896 q 197 631 194 651 q 225 393 197 624 q 233 367 226 376 q 264 490 263 483 q 322 694 292 592 q 371 851 343 768 q 457 911 392 914 q 513 874 497 910 q 525 836 519 858 q 588 565 571 636 q 597 520 592 544 q 605 476 601 496 q 614 429 608 456 q 622 385 619 403 z "},"X":{"ha":757,"x_min":6,"x_max":751,"o":"m 381 350 q 374 358 381 350 q 353 331 354 332 q 259 199 324 289 q 160 61 194 108 q 138 33 144 42 q 92 9 118 13 q 42 20 65 6 q 13 60 19 35 q 21 111 7 86 q 47 150 26 122 q 177 331 93 214 q 282 476 261 447 q 293 493 283 478 q 182 676 190 663 q 124 769 164 707 q 65 865 85 832 q 47 906 53 885 q 52 947 42 928 q 83 975 63 967 q 126 979 104 985 q 161 954 147 974 q 253 822 178 928 q 361 654 329 717 q 383 619 363 654 q 404 646 404 644 q 467 733 432 685 q 538 831 501 781 q 600 917 574 881 q 619 943 614 938 q 666 967 639 964 q 716 956 693 971 q 744 915 739 940 q 736 865 750 890 q 717 836 732 857 q 482 511 531 578 q 481 463 465 488 q 679 118 524 389 q 692 94 688 104 q 692 45 701 69 q 660 8 682 21 q 609 1 635 -4 q 567 29 583 7 q 547 63 565 32 q 476 186 538 79 q 381 350 414 293 z "},"Y":{"ha":672,"x_min":-12,"x_max":672,"o":"m 310 481 q 319 461 311 481 q 335 486 333 485 q 376 578 371 564 q 499 828 410 668 q 547 926 515 858 q 601 969 565 965 q 635 963 619 971 q 661 941 651 956 q 671 908 671 926 q 665 875 671 890 q 629 782 644 817 q 572 660 618 760 q 503 507 525 561 q 474 446 490 478 q 438 376 458 414 q 407 317 418 339 q 396 279 397 297 q 390 209 393 246 q 383 126 386 172 q 378 56 379 81 q 372 29 376 42 q 345 -15 367 1 q 297 -28 324 -31 q 251 -5 269 -25 q 233 42 232 15 q 242 163 233 58 q 244 199 242 176 q 247 240 246 221 q 250 275 249 258 q 208 384 250 279 q 110 625 165 489 q 33 819 54 761 q 11 868 25 842 q 15 942 -11 910 q 90 960 44 978 q 140 910 125 946 q 238 674 221 714 q 310 481 238 672 z "},"Z":{"ha":751,"x_min":-4,"x_max":738,"o":"m 214 156 q 201 138 213 154 q 275 140 272 140 q 653 147 501 160 q 694 138 678 144 q 726 108 715 128 q 733 63 736 88 q 714 24 729 40 q 675 4 699 8 q 649 3 661 1 q 535 7 565 7 q 407 4 506 7 q 294 0 308 1 q 231 1 253 0 q 167 5 213 1 q 97 10 122 8 q 29 54 53 11 q 38 167 -4 114 q 76 218 42 172 q 215 401 206 389 q 274 476 236 428 q 318 533 311 524 q 378 608 338 558 q 454 703 418 658 q 519 784 490 747 q 551 825 549 821 q 525 826 525 826 q 452 826 497 826 q 359 826 407 826 q 266 824 311 825 q 188 822 221 822 q 144 821 154 821 q 100 821 118 818 q 69 831 82 822 q 48 853 56 840 q 40 883 40 867 q 60 939 40 910 q 104 969 79 968 q 618 967 232 976 q 711 926 658 965 q 733 889 729 911 q 724 846 736 867 q 692 796 711 826 q 665 751 674 765 q 638 712 656 736 q 600 661 621 688 q 386 390 476 507 q 335 321 367 367 q 294 265 303 275 q 269 230 283 249 q 239 190 256 211 q 214 156 222 168 z "},"[":{"ha":422,"x_min":63,"x_max":397,"o":"m 396 69 q 381 26 397 44 q 339 1 365 7 q 310 0 328 0 q 183 0 233 0 q 107 28 135 1 q 79 104 79 56 q 65 799 76 192 q 65 824 65 800 q 64 863 64 849 q 64 888 64 879 q 135 961 71 954 q 290 972 214 968 q 342 956 321 974 q 364 908 363 938 q 347 860 365 879 q 297 836 329 840 q 200 829 292 836 q 208 440 203 693 q 214 136 214 186 q 249 136 247 136 q 335 135 326 135 q 365 124 351 133 q 388 101 379 115 q 396 69 396 88 z "},"]":{"ha":388,"x_min":29,"x_max":322,"o":"m 322 915 q 322 904 322 911 q 314 328 315 411 q 310 81 313 233 q 246 7 308 14 q 106 -6 179 -1 q 55 10 75 -7 q 32 56 35 28 q 49 103 31 83 q 97 126 67 124 q 178 135 101 128 q 188 842 183 472 q 119 842 125 842 q 83 846 93 842 q 49 869 61 851 q 35 908 36 886 q 48 947 35 929 q 82 971 61 964 q 88 972 86 972 q 264 978 246 978 q 293 968 281 976 q 313 946 306 960 q 322 915 321 932 z "},"_":{"ha":622,"x_min":22,"x_max":600,"o":"m 542 156 q 583 131 568 150 q 599 86 599 111 q 581 40 599 60 q 539 17 564 21 q 508 15 531 15 q 298 15 469 14 q 115 17 126 17 q 79 19 94 17 q 39 44 54 25 q 24 90 24 64 q 41 136 24 117 q 83 160 58 156 q 111 161 92 161 q 506 160 363 160 q 542 156 526 160 z "},"a":{"ha":660,"x_min":28,"x_max":604,"o":"m 203 606 q 280 640 235 628 q 380 642 325 653 q 468 589 435 632 q 483 622 483 621 q 517 651 496 643 q 559 653 538 660 q 592 627 581 646 q 601 583 604 608 q 597 81 603 281 q 596 50 599 64 q 574 6 593 24 q 529 -12 556 -11 q 457 32 467 -15 q 288 -3 389 0 q 223 2 256 -4 q 153 31 190 8 q 88 89 115 53 q 45 190 61 125 q 33 339 29 254 q 86 490 47 431 q 203 606 125 549 m 433 194 q 440 273 438 215 q 444 392 443 331 q 444 460 444 454 q 415 507 443 490 q 351 522 386 524 q 293 506 317 521 q 183 279 182 429 q 306 126 182 147 q 383 140 350 119 q 433 194 417 160 z "},"b":{"ha":640,"x_min":46,"x_max":604,"o":"m 215 538 q 235 583 215 554 q 385 650 281 650 q 416 652 401 651 q 460 647 431 653 q 512 628 490 642 q 558 585 533 615 q 593 512 582 556 q 603 396 604 468 q 583 231 601 324 q 476 66 564 139 q 294 -22 389 -7 q 194 -4 242 -31 q 139 0 179 4 q 95 15 114 -4 q 74 64 76 33 q 60 296 71 89 q 58 718 47 519 q 65 782 60 744 q 71 842 69 819 q 72 875 72 854 q 74 903 72 896 q 86 939 74 924 q 116 962 99 954 q 153 969 133 969 q 206 918 200 969 q 208 854 210 896 q 212 680 208 772 q 215 538 215 588 m 228 292 q 228 210 225 281 q 228 125 231 140 q 272 121 264 119 q 371 165 335 129 q 449 339 428 225 q 428 500 471 453 q 386 518 411 517 q 334 503 361 519 q 283 460 307 488 q 244 388 260 432 q 228 292 228 343 z "},"c":{"ha":579,"x_min":35,"x_max":561,"o":"m 40 314 q 38 314 39 314 q 36 314 36 314 q 47 418 46 414 q 219 658 76 582 q 355 683 276 690 q 478 629 433 676 q 511 574 507 601 q 479 503 518 526 q 447 497 458 494 q 417 515 436 500 q 350 535 400 536 q 274 513 300 535 q 200 392 210 461 q 204 218 183 290 q 232 160 210 199 q 258 139 239 149 q 304 126 278 129 q 363 139 331 124 q 422 189 396 154 q 448 215 433 204 q 483 231 463 225 q 521 222 503 236 q 552 180 543 206 q 550 126 561 154 q 503 57 526 78 q 421 1 479 36 q 269 -17 368 -31 q 126 44 171 -4 q 40 257 51 125 q 40 314 40 260 z "},"d":{"ha":654,"x_min":26,"x_max":622,"o":"m 201 601 q 278 631 231 621 q 381 630 326 640 q 467 585 435 619 q 473 664 469 590 q 479 809 476 738 q 482 889 482 881 q 497 947 482 929 q 550 965 513 965 q 603 947 586 965 q 621 886 621 928 q 609 451 621 782 q 596 76 597 119 q 594 46 597 60 q 583 14 593 28 q 560 -8 574 0 q 528 -17 546 -15 q 456 28 465 -19 q 286 -8 388 -4 q 222 -3 254 -10 q 151 26 189 4 q 87 85 114 49 q 44 185 60 121 q 32 335 28 250 q 85 485 46 426 q 201 601 124 544 m 432 190 q 439 269 436 211 q 442 388 442 326 q 443 456 443 450 q 413 503 442 486 q 350 518 385 519 q 292 501 315 517 q 182 275 181 425 q 304 122 181 143 q 382 135 349 115 q 432 190 415 156 z "},"e":{"ha":600,"x_min":21,"x_max":574,"o":"m 333 219 q 263 210 319 217 q 204 204 207 204 q 216 148 201 171 q 255 115 231 125 q 308 101 279 104 q 361 99 336 97 q 401 108 386 101 q 508 131 478 133 q 551 101 538 128 q 526 22 572 60 q 285 -31 468 -32 q 133 33 190 -28 q 54 181 75 93 q 46 422 21 311 q 163 624 71 533 q 189 646 165 628 q 267 679 221 669 q 363 683 314 689 q 456 658 413 676 q 529 606 500 640 q 561 529 558 572 q 515 335 569 419 q 333 219 458 243 m 413 521 q 372 547 399 540 q 313 542 344 553 q 253 509 282 532 q 208 443 225 486 q 194 344 192 400 q 264 351 218 343 q 329 365 310 358 q 397 423 374 382 q 413 521 419 464 z "},"f":{"ha":497,"x_min":-1,"x_max":544,"o":"m 386 811 q 364 786 374 800 q 349 763 357 778 q 335 733 342 749 q 322 699 328 717 q 313 665 317 682 q 307 635 308 649 q 342 635 340 635 q 403 635 371 635 q 453 621 425 633 q 489 560 490 604 q 447 500 488 515 q 392 492 429 494 q 358 490 369 492 q 338 489 347 489 q 306 488 329 489 q 283 483 306 488 q 283 217 268 333 q 299 68 289 175 q 296 35 300 50 q 282 7 292 19 q 258 -12 272 -6 q 228 -18 243 -18 q 184 -4 203 -18 q 160 33 165 10 q 151 96 157 44 q 135 260 136 235 q 133 411 135 272 q 133 457 133 414 q 81 451 85 451 q 17 492 33 450 q 35 567 0 535 q 74 590 53 583 q 151 614 81 593 q 165 674 164 671 q 210 803 196 774 q 354 947 254 908 q 471 944 415 972 q 519 899 504 928 q 509 821 543 854 q 431 814 475 788 q 408 823 414 824 q 386 811 401 822 z "},"g":{"ha":631,"x_min":7,"x_max":576,"o":"m 574 601 q 574 485 575 572 q 570 281 572 399 q 568 144 568 164 q 540 -121 572 -10 q 486 -239 521 -189 q 189 -372 383 -389 q 58 -301 113 -367 q 32 -255 40 -281 q 33 -206 24 -229 q 67 -169 43 -182 q 113 -163 89 -158 q 154 -189 138 -168 q 164 -201 156 -190 q 225 -232 186 -235 q 378 -139 336 -224 q 421 40 417 -61 q 399 29 399 29 q 182 19 285 -26 q 44 189 79 65 q 68 450 8 318 q 247 635 128 582 q 454 633 354 682 q 494 650 471 649 q 549 639 522 651 q 574 601 575 626 m 428 219 q 433 472 431 240 q 415 486 425 478 q 314 506 372 528 q 269 481 286 496 q 179 243 158 386 q 182 228 181 233 q 238 156 199 176 q 319 143 278 135 q 392 173 360 151 q 428 219 424 194 z "},"h":{"ha":617,"x_min":43,"x_max":564,"o":"m 561 472 q 560 285 561 461 q 561 88 558 108 q 533 18 563 43 q 465 3 504 -7 q 411 54 422 14 q 404 107 406 76 q 408 429 401 246 q 364 514 411 494 q 274 483 317 532 q 229 346 232 436 q 228 245 228 313 q 227 127 228 178 q 225 69 226 76 q 210 24 219 40 q 177 -9 199 1 q 133 -15 156 -19 q 91 4 108 -12 q 68 46 74 21 q 64 82 65 58 q 65 589 43 346 q 101 894 69 626 q 110 922 104 907 q 142 961 119 949 q 190 967 164 974 q 219 953 207 964 q 237 928 231 943 q 242 894 243 913 q 235 722 239 835 q 233 588 231 610 q 293 633 258 614 q 410 651 336 660 q 515 606 485 643 q 561 472 561 551 z "},"i":{"ha":258,"x_min":46,"x_max":224,"o":"m 193 319 q 204 100 200 181 q 206 64 206 67 q 185 21 204 39 q 142 1 167 3 q 94 13 115 -1 q 67 51 74 26 q 61 88 63 65 q 51 265 56 183 q 63 515 46 363 q 65 539 64 525 q 68 567 67 553 q 71 592 69 582 q 90 633 74 617 q 131 650 106 649 q 174 638 156 651 q 196 600 192 625 q 200 543 200 581 q 193 319 199 517 m 211 874 q 222 835 222 853 q 214 794 222 807 q 185 765 204 776 q 144 760 175 760 q 107 771 126 760 q 79 798 89 782 q 69 835 69 814 q 74 875 69 868 q 106 900 79 885 q 144 914 129 914 q 182 901 161 914 q 211 874 200 890 z "},"j":{"ha":260,"x_min":-215,"x_max":213,"o":"m 200 310 q 201 233 200 285 q 204 141 203 181 q 206 64 206 101 q 185 -150 208 -39 q 128 -286 168 -229 q 40 -358 93 -335 q -79 -361 -12 -381 q -154 -329 -121 -349 q -214 -226 -211 -297 q -208 -193 -214 -208 q -189 -168 -201 -178 q -158 -154 -176 -158 q -110 -160 -133 -149 q -78 -196 -86 -171 q -61 -219 -72 -212 q -29 -228 -50 -225 q 11 -203 -4 -232 q 40 -132 36 -153 q 61 26 60 -32 q 59 163 61 75 q 57 286 57 251 q 63 588 57 364 q 69 622 63 607 q 124 658 85 657 q 181 625 164 658 q 189 593 189 610 q 201 310 192 538 q 200 310 201 310 m 200 879 q 211 840 213 854 q 196 803 210 822 q 165 776 183 785 q 126 768 144 767 q 86 779 99 769 q 60 811 69 790 q 57 851 56 821 q 71 888 58 869 q 100 913 83 906 q 138 919 117 921 q 178 913 172 917 q 200 879 188 906 z "},"k":{"ha":506,"x_min":51,"x_max":490,"o":"m 483 88 q 480 44 489 65 q 450 10 471 22 q 407 0 431 -3 q 367 19 383 3 q 218 185 326 58 q 206 196 218 185 q 199 193 203 194 q 201 143 201 168 q 200 99 201 118 q 199 78 199 79 q 181 25 199 47 q 136 0 163 3 q 86 15 108 -3 q 58 61 64 32 q 56 311 51 101 q 69 660 60 521 q 74 776 71 678 q 78 893 76 875 q 79 921 79 917 q 99 954 83 940 q 134 971 114 968 q 173 964 154 974 q 199 935 192 954 q 210 874 210 904 q 203 463 208 682 q 203 459 203 461 q 203 452 203 457 q 203 443 203 447 q 222 465 222 464 q 272 534 240 489 q 318 599 304 579 q 344 632 336 625 q 383 650 361 649 q 422 639 404 651 q 447 606 440 626 q 446 563 453 585 q 435 542 443 556 q 297 326 360 406 q 286 311 297 325 q 315 282 314 282 q 390 205 344 254 q 468 121 435 156 q 483 88 479 101 z "},"l":{"ha":265,"x_min":53,"x_max":211,"o":"m 210 621 q 201 176 210 601 q 197 76 201 135 q 177 23 196 44 q 131 0 158 1 q 82 17 103 -1 q 57 68 61 36 q 54 113 54 86 q 69 754 67 706 q 82 904 71 804 q 106 953 86 935 q 151 969 125 971 q 194 946 176 967 q 208 896 211 925 q 207 826 207 864 q 207 760 207 788 q 208 688 207 732 q 210 621 210 644 z "},"m":{"ha":990,"x_min":44,"x_max":940,"o":"m 454 331 q 399 486 450 450 q 294 483 347 522 q 231 378 242 443 q 224 234 224 332 q 219 88 224 136 q 189 28 215 51 q 132 4 163 6 q 90 19 104 4 q 67 63 75 33 q 54 153 57 108 q 68 542 44 329 q 72 599 69 556 q 90 644 74 626 q 132 664 106 663 q 176 650 157 665 q 200 608 196 635 q 201 532 200 600 q 252 606 211 567 q 318 654 293 646 q 374 663 343 661 q 437 658 404 664 q 500 634 469 653 q 549 586 531 615 q 567 554 550 583 q 597 584 574 561 q 632 615 621 607 q 773 658 693 664 q 897 589 853 651 q 915 556 908 574 q 926 517 922 539 q 931 478 929 494 q 934 436 933 463 q 936 399 935 410 q 938 299 936 372 q 939 176 940 226 q 932 78 938 126 q 926 51 931 63 q 898 13 919 26 q 853 1 876 -1 q 820 12 835 3 q 797 35 806 21 q 789 67 789 50 q 792 117 789 85 q 796 164 796 150 q 798 208 797 175 q 799 253 799 240 q 800 294 800 267 q 799 340 800 322 q 797 381 799 357 q 793 428 796 406 q 748 476 788 465 q 667 462 708 486 q 618 390 625 438 q 606 310 611 368 q 596 176 600 251 q 590 85 592 101 q 583 46 588 56 q 551 9 575 19 q 500 10 526 -1 q 444 89 446 33 q 447 164 444 97 q 449 216 447 182 q 453 278 451 250 q 454 331 454 306 z "},"n":{"ha":650,"x_min":51,"x_max":601,"o":"m 208 607 q 208 579 210 597 q 206 547 207 561 q 207 533 206 533 q 308 628 239 589 q 438 651 376 665 q 544 575 500 638 q 600 392 600 499 q 596 218 601 304 q 596 144 593 188 q 596 69 599 101 q 540 3 590 13 q 478 17 504 -6 q 453 75 453 39 q 455 110 453 88 q 458 139 457 133 q 456 393 465 243 q 441 467 453 439 q 419 500 429 494 q 297 488 367 531 q 214 360 226 444 q 211 256 211 329 q 210 124 211 183 q 201 49 208 65 q 117 -1 183 -6 q 76 22 90 1 q 58 71 61 43 q 54 129 54 106 q 53 252 54 158 q 54 375 51 346 q 72 585 56 417 q 78 608 72 596 q 104 646 85 631 q 146 658 124 661 q 168 656 161 657 q 186 649 175 654 q 202 633 197 643 q 208 607 207 624 z "},"o":{"ha":575,"x_min":26,"x_max":560,"o":"m 529 435 q 488 121 560 268 q 392 3 451 47 q 249 -37 325 -47 q 118 39 172 -28 q 38 256 51 118 q 100 535 26 408 q 185 631 135 594 q 326 669 251 679 q 456 596 400 660 q 529 435 511 531 m 369 164 q 413 382 424 258 q 407 421 407 418 q 361 514 392 481 q 260 528 315 564 q 207 472 228 508 q 165 225 142 360 q 213 118 176 157 q 315 104 258 68 q 369 164 346 124 z "},"p":{"ha":643,"x_min":40,"x_max":614,"o":"m 538 575 q 565 535 551 557 q 592 473 578 514 q 610 388 607 432 q 601 281 614 343 q 554 157 588 219 q 311 10 482 18 q 208 8 307 8 q 207 -84 210 -8 q 206 -178 204 -160 q 213 -293 213 -286 q 199 -347 214 -322 q 146 -381 181 -379 q 89 -353 111 -382 q 69 -293 74 -332 q 63 408 42 -7 q 75 585 67 483 q 85 625 76 607 q 113 656 93 646 q 154 663 132 667 q 179 651 168 660 q 197 630 190 643 q 204 601 204 617 q 204 584 206 596 q 203 568 203 572 q 203 539 203 567 q 211 554 203 539 q 238 592 219 569 q 281 626 257 615 q 419 651 353 664 q 538 575 485 638 m 410 186 q 449 295 436 210 q 438 438 461 381 q 403 479 429 456 q 367 490 389 488 q 320 487 344 492 q 274 472 296 482 q 238 443 253 463 q 219 399 222 424 q 215 363 218 381 q 210 337 211 344 q 208 306 210 329 q 208 251 207 282 q 208 213 208 217 q 221 172 208 189 q 256 153 233 154 q 410 186 364 144 z "},"q":{"ha":661,"x_min":28,"x_max":604,"o":"m 203 606 q 280 640 235 628 q 380 642 325 653 q 468 589 435 632 q 483 622 483 621 q 517 651 496 643 q 559 653 538 660 q 592 627 581 646 q 601 583 604 608 q 600 78 603 454 q 596 -307 597 -299 q 592 -340 596 -328 q 575 -358 588 -353 q 556 -363 563 -362 q 529 -365 549 -364 q 510 -365 519 -365 q 492 -362 500 -365 q 476 -353 483 -358 q 465 -335 469 -347 q 458 -307 460 -324 q 458 -138 458 -307 q 457 32 457 31 q 288 -3 389 0 q 223 2 256 -4 q 153 31 190 8 q 88 89 115 53 q 45 190 61 125 q 33 339 29 254 q 86 490 47 431 q 203 606 125 549 m 433 194 q 440 273 438 215 q 444 392 443 331 q 444 460 444 454 q 415 507 443 490 q 351 523 386 524 q 293 506 317 522 q 183 279 182 429 q 306 126 182 147 q 383 140 350 119 q 433 194 417 160 z "},"r":{"ha":500,"x_min":50,"x_max":499,"o":"m 461 639 q 492 571 499 608 q 439 517 482 524 q 326 481 389 524 q 222 349 264 438 q 212 225 214 322 q 203 81 210 128 q 190 40 199 58 q 172 15 183 25 q 145 2 160 6 q 115 1 131 -1 q 76 20 92 4 q 56 60 61 36 q 54 78 56 67 q 58 411 51 311 q 67 581 60 421 q 67 589 67 582 q 68 599 68 596 q 88 643 71 626 q 131 660 106 660 q 174 643 157 660 q 194 599 192 626 q 196 581 196 590 q 196 559 196 571 q 197 542 196 547 q 199 513 197 540 q 201 511 199 511 q 204 510 203 511 q 228 542 226 540 q 318 625 263 589 q 410 654 363 654 q 461 639 440 654 z "},"s":{"ha":504,"x_min":36,"x_max":472,"o":"m 458 238 q 469 192 458 235 q 460 114 472 150 q 421 49 447 78 q 354 1 394 21 q 185 -26 261 -42 q 81 31 121 -14 q 39 138 42 75 q 74 206 38 181 q 138 215 106 228 q 176 167 171 201 q 178 154 178 163 q 178 142 178 146 q 199 113 181 126 q 247 101 217 100 q 307 126 278 103 q 327 172 325 139 q 300 232 329 204 q 217 288 290 239 q 183 309 206 294 q 143 335 161 324 q 110 358 125 346 q 58 428 75 386 q 43 509 42 469 q 61 583 44 549 q 134 660 85 632 q 233 692 183 688 q 328 688 283 696 q 393 663 372 679 q 437 613 421 644 q 449 550 453 581 q 441 528 447 538 q 425 511 435 518 q 403 501 415 504 q 339 525 363 493 q 332 538 333 533 q 301 567 328 557 q 254 578 275 578 q 214 564 232 578 q 188 531 196 550 q 183 488 179 510 q 206 454 188 467 q 283 403 225 439 q 318 383 292 397 q 357 358 344 368 q 458 238 436 303 z "},"t":{"ha":263,"x_min":-93,"x_max":353,"o":"m 288 835 q 333 815 314 835 q 351 769 351 796 q 333 723 351 742 q 288 704 314 704 l 197 704 l 197 650 q 203 375 197 590 q 208 99 208 160 q 207 63 208 74 q 183 17 203 35 q 135 1 163 0 q 89 19 108 1 q 65 65 69 38 q 65 99 65 72 q 59 328 65 156 q 53 560 53 501 l 53 704 l -26 704 q -73 723 -54 704 q -92 769 -92 742 q -73 815 -92 796 q -26 835 -54 835 l 53 835 l 53 838 q 53 875 53 843 q 53 897 53 893 q 75 949 56 928 q 124 969 94 969 q 175 950 154 971 q 197 896 196 929 l 197 835 l 288 835 z "},"u":{"ha":575,"x_min":24,"x_max":544,"o":"m 535 593 q 532 406 544 547 q 488 188 519 264 q 388 33 461 103 q 279 -14 340 -12 q 167 28 218 -15 q 56 233 76 100 q 57 576 25 439 q 75 618 61 599 q 110 647 88 640 q 154 644 132 654 q 178 627 168 639 q 190 601 188 615 q 189 569 193 586 q 181 517 183 546 q 178 467 179 488 q 182 406 178 447 q 187 354 186 365 q 194 296 188 343 q 201 247 200 249 q 250 146 210 183 q 313 147 283 115 q 383 326 354 167 q 396 561 413 485 q 403 616 389 592 q 447 647 418 640 q 485 647 467 653 q 517 628 504 642 q 535 593 531 614 z "},"v":{"ha":571,"x_min":21,"x_max":563,"o":"m 514 651 q 550 621 538 643 q 557 574 563 599 q 553 558 556 565 q 532 507 544 538 q 510 453 519 476 q 489 401 500 431 q 468 349 478 372 q 441 279 461 331 q 410 200 421 228 q 353 76 386 146 q 324 33 340 51 q 263 3 299 4 q 200 28 226 1 q 156 93 171 58 q 75 316 107 210 q 32 528 43 422 q 28 551 31 536 q 24 574 25 567 q 33 619 21 600 q 71 644 46 638 q 115 640 93 650 q 146 606 136 629 q 167 532 153 589 q 250 244 215 335 q 263 218 251 243 q 288 279 286 276 q 354 446 344 421 q 382 519 364 471 q 410 589 400 567 q 426 624 418 608 q 466 653 442 646 q 514 651 490 661 z "},"w":{"ha":833,"x_min":38,"x_max":804,"o":"m 788 540 q 757 182 803 328 q 642 6 724 78 q 510 -34 579 -49 q 406 57 442 -19 q 392 89 404 58 q 371 65 372 67 q 289 8 333 25 q 138 35 207 -22 q 56 206 69 93 q 53 515 39 329 q 60 586 56 554 q 85 633 65 615 q 132 646 104 650 q 174 622 158 643 q 188 571 190 601 q 184 507 185 540 q 185 438 183 474 q 188 376 186 403 q 192 308 189 349 q 196 243 194 267 q 208 183 197 217 q 228 167 211 175 q 267 165 244 160 q 301 193 289 169 q 322 249 314 215 q 334 317 331 282 q 340 385 338 351 q 344 450 342 418 q 351 501 347 482 q 360 531 356 519 q 390 566 369 554 q 433 575 410 578 q 473 557 456 572 q 494 518 490 542 q 499 469 500 496 q 504 306 496 419 q 524 156 513 192 q 527 147 524 151 q 536 140 531 143 q 548 134 542 136 q 562 135 554 132 q 577 144 569 138 q 593 164 585 150 q 608 200 601 178 q 642 333 638 293 q 646 513 646 374 q 636 561 646 528 q 639 617 628 592 q 676 654 650 643 q 729 655 703 665 q 768 617 756 644 q 788 540 786 576 z "},"x":{"ha":536,"x_min":24,"x_max":514,"o":"m 376 285 q 488 97 426 208 q 497 44 503 69 q 468 4 492 18 q 422 -1 447 -8 q 379 31 396 6 q 272 188 356 67 q 231 122 246 144 q 175 38 208 86 q 130 3 157 11 q 78 8 103 -6 q 45 49 53 22 q 50 106 38 75 q 71 143 57 122 q 183 315 113 208 q 96 443 122 404 q 40 528 72 478 q 27 583 24 556 q 52 628 31 611 q 101 642 74 646 q 151 615 129 639 q 179 581 164 603 q 269 446 208 538 q 303 497 285 471 q 393 618 331 539 q 438 649 413 643 q 485 639 464 654 q 509 597 506 622 q 496 546 513 571 q 354 319 465 500 q 376 285 376 285 z "},"y":{"ha":615,"x_min":15,"x_max":604,"o":"m 553 654 q 590 626 578 649 q 597 576 603 604 q 585 524 593 551 q 565 463 578 497 q 547 411 553 429 q 524 351 540 393 q 503 301 507 310 q 397 19 468 208 q 293 -254 326 -171 q 286 -276 290 -262 q 278 -301 282 -289 q 269 -324 274 -314 q 233 -359 258 -349 q 183 -361 208 -369 q 143 -329 157 -353 q 135 -278 129 -306 q 143 -251 138 -265 q 181 -140 153 -225 q 224 -17 208 -56 q 228 12 229 0 q 219 47 228 24 q 208 69 218 47 q 183 125 197 92 q 149 202 168 158 q 110 294 129 246 q 72 389 90 342 q 40 481 54 436 q 19 560 26 526 q 17 599 15 581 q 31 635 18 619 q 64 656 44 650 q 105 652 86 660 q 133 625 124 644 q 144 596 138 618 q 217 426 151 575 q 296 242 283 278 q 311 206 296 240 q 371 360 368 350 q 422 480 385 394 q 474 607 458 565 q 506 648 485 635 q 553 654 526 661 z "},"z":{"ha":542,"x_min":8,"x_max":533,"o":"m 450 443 q 349 307 417 400 q 242 167 281 214 q 237 160 239 164 q 231 151 235 156 q 224 142 226 146 q 356 139 285 136 q 413 138 390 140 q 460 115 443 133 q 478 68 478 96 q 470 35 478 50 q 449 11 463 21 q 415 -1 435 1 q 249 -3 388 -4 q 94 0 110 -3 q 28 46 46 7 q 36 125 10 85 q 101 210 47 140 q 230 376 156 281 q 329 506 304 472 q 333 517 329 506 q 304 516 322 517 q 271 515 286 515 q 243 514 256 515 q 122 513 139 513 q 76 528 94 513 q 56 567 58 543 q 65 612 51 592 q 106 639 79 632 q 133 643 117 642 q 298 649 183 647 q 447 649 413 651 q 513 609 494 644 q 510 532 532 574 q 450 443 486 489 z "},"~":{"ha":879,"x_min":24,"x_max":863,"o":"m 838 597 q 843 528 861 565 q 819 497 833 511 q 615 429 731 408 q 497 458 599 432 q 463 467 490 460 q 427 476 436 474 q 394 483 418 478 q 358 491 371 489 q 324 496 344 493 q 287 499 304 499 q 251 499 269 500 q 189 492 229 499 q 140 464 160 488 q 99 440 122 443 q 56 450 76 436 q 29 488 35 464 q 36 536 24 511 q 110 606 57 579 q 236 639 163 632 q 322 642 242 639 q 575 586 429 628 q 632 572 599 579 q 715 596 681 563 q 771 625 739 619 q 838 597 814 631 z "},"":{"ha":381,"x_min":0,"x_max":0,"o":""},"":{"ha":0,"x_min":0,"x_max":0,"o":""}}}
